<?xml version="1.0" encoding="UTF-8"?>
<svg xmlns="http://www.w3.org/2000/svg" width="1600" height="900" viewBox="0 0 1600 900" role="img" aria-labelledby="t d">
<title id="t">Hero illustration of youth growth</title><desc id="d">Abstract layered waves and shapes symbolizing growth</desc>
<defs>
  <linearGradient id="g1" x1="0" y1="0" x2="1" y2="1">
    <stop offset="0%" stop-color="#dbeafe"/>
    <stop offset="100%" stop-color="#ecfeff"/>
  </linearGradient>
  <linearGradient id="g2" x1="0" y1="0" x2="1" y2="0">
    <stop offset="0%" stop-color="#1d4ed8"/>
    <stop offset="100%" stop-color="#10b981"/>
  </linearGradient>
</defs>
<rect width="1600" height="900" fill="url(#g1)"/>
<g opacity=".15">
  <circle cx="220" cy="180" r="120" fill="#1d4ed8"/>
  <circle cx="540" cy="200" r="80" fill="#0ea5e9"/>
  <circle cx="900" cy="160" r="140" fill="#10b981"/>
</g>
<path d="M0,580 C350,520 520,680 800,640 C1080,600 1300,720 1600,650 L1600,900 L0,900 Z" fill="url(#g2)" opacity=".25"/>
<path d="M0,640 C350,600 520,740 800,700 C1080,660 1300,780 1600,700 L1600,900 L0,900 Z" fill="#1d4ed8" opacity=".12"/>
<path d="M0,700 C350,670 520,800 800,760 C1080,720 1300,840 1600,760 L1600,900 L0,900 Z" fill="#10b981" opacity=".12"/>
</svg>
